# xmcd
#
# Track frame offsets: 
#        150
#        12235
#        21730
#        32392
#        43195
#        56832
#        67980
#        75860
#        84292
#        96967
#        104780
#        119197
#        129240
#        143777
#        162555
#        171307
#        180595
#        190592
#        201692
#        212575
#        218962
#        228865
#        238685
#        249680
#        259322
#        271530
#        285020
#        293897
#        305650
#        315445
#
# Disc length: 4331 seconds
#
# Revision: 4
# Processed by: cddbd v1.4PL0 Copyright (c) Steve Scherf et al.
# Submitted via: ExactAudioCopy v0.95a1
#
DISCID=b610e91e
DTITLE=Grandpa Jones - An American Original
DYEAR=1998
DGENRE=Bluegrass
TTITLE0=Grandfather's Clock
TTITLE1=Old Rattler
TTITLE2=Alabam
TTITLE3=Eight More Miles To Louisville
TTITLE4=Dog And Gun
TTITLE5=Sweet Dreams Of Kentucky
TTITLE6=She Was Always Chewing Gum
TTITLE7=Open Up Them Pearly Gates For Me
TTITLE8=Dark As A Dungeon
TTITLE9=Darby's Ram
TTITLE10=Neighbors
TTITLE11=Old Mountain Dew
TTITLE12=Driftwood On The River
TTITLE13=Muleskinner Blues
TTITLE14=Daylight Savings Time
TTITLE15=My Little Own Home Down In New Orleans
TTITLE16=Old Camp Meeting Time
TTITLE17=Jesse James
TTITLE18=It's Raining Here This Morning
TTITLE19=I Don't Love Nobody
TTITLE20=Nelly Bly
TTITLE21=I Gave My Love A Cherry
TTITLE22=Down The Old Plank Road
TTITLE23=I Am A Pilgrim
TTITLE24=Billy Richardson's Last Ride
TTITLE25=Tragic Romance
TTITLE26=I Wish I'd Stayed In The Wagon Yard
TTITLE27=Cannonball Blues
TTITLE28=The All Go Hungry Hash House
TTITLE29=Are You From Dixie?
EXTD=
EXTT0=
EXTT1=
EXTT2=
EXTT3=
EXTT4=
EXTT5=
EXTT6=
EXTT7=
EXTT8=
EXTT9=
EXTT10=
EXTT11=
EXTT12=
EXTT13=
EXTT14=
EXTT15=
EXTT16=
EXTT17=
EXTT18=
EXTT19=
EXTT20=
EXTT21=
EXTT22=
EXTT23=
EXTT24=
EXTT25=
EXTT26=
EXTT27=
EXTT28=
EXTT29=
PLAYORDER=
